<svg xmlns="http://www.w3.org/2000/svg" width="96.58" height="57.23" viewBox="0 0 96.58 57.23">
  <g id="a8101695-1043-4b0c-91cf-1b0c94ac16a3" data-name="レイヤー 2">
    <g id="bf252e7e-8be1-4f56-9454-a7d99d3c7ee7" data-name="レイヤー 1">
      <path d="M93.38,28.79Q90.19,25,83.28,22.65c-1.15-.39-2.31-.75-3.49-1.08a19.66,19.66,0,0,1-3.16-1.19,7.29,7.29,0,0,1-2.26-1.62,3.33,3.33,0,0,1-.87-2.37A4,4,0,0,1,75.23,13a7.26,7.26,0,0,1,4.46-1.29,12.23,12.23,0,0,1,4.46.9,20.33,20.33,0,0,1,3.44,2,1.19,1.19,0,0,0,1.8-.45l4.32-8.47a1.35,1.35,0,0,0-.64-1.86,53.73,53.73,0,0,0-7.13-2.68A34.26,34.26,0,0,0,77.53,0a22.31,22.31,0,0,0-7.8,1.29,17,17,0,0,0-5.9,3.63A15.67,15.67,0,0,0,61,8.61a2.8,2.8,0,0,0-.14.25A.49.49,0,0,1,60,8.64h0V2.93a1.43,1.43,0,0,0-1.42-1.42H47a3.44,3.44,0,0,0-2.33,1.08L.27,54.64c-.51.6-.28,1.08.5,1.08h15.7a3.49,3.49,0,0,0,2.34-1.08L25,47.38a3.53,3.53,0,0,1,2.34-1.08H44.19a1.42,1.42,0,0,1,1.41,1.42l-.05,6.58A1.42,1.42,0,0,0,47,55.72H58.55c.78,0,1.42-.15,1.42-.34V54.26h0a.61.61,0,0,1,.89-.55c.76.39,1.53.74,2.31,1.06a32,32,0,0,0,12.42,2.46,27.44,27.44,0,0,0,8.88-1.33,18.83,18.83,0,0,0,6.61-3.74,15.58,15.58,0,0,0,4.1-5.79,19.41,19.41,0,0,0,1.4-7.54Q96.58,32.64,93.38,28.79ZM45.61,34.17a1.43,1.43,0,0,1-1.42,1.42H36.48c-.78,0-1-.49-.5-1.08l8.71-10.2c.5-.59.92-.44.92.34Zm34.47,9.54c-1.12,1.06-2.84,1.58-5.14,1.58a15,15,0,0,1-6.11-1.36,33.22,33.22,0,0,1-5.14-3.3c-.61-.48-1.34-.45-1.62.07l-1,1.88h0A.59.59,0,0,1,60,42.31h0v-16h0a.5.5,0,0,1,.93-.25c.13.21.25.41.36.56a12.09,12.09,0,0,0,2.08,2.26A17.17,17.17,0,0,0,68,31.6c1.75.69,3.54,1.33,5.36,1.9,1.53.53,2.84,1,3.92,1.44a11.51,11.51,0,0,1,2.62,1.4A4.7,4.7,0,0,1,81.34,38a4.9,4.9,0,0,1-1.26,5.71Z"/>
    </g>
  </g>
</svg>
